{
  "accessors": [
    {
      "bufferView": 2,
      "componentType": 5126,
      "count": 65532,
      "max": [
        0.991027295589447,
        1.008679986000061,
        1.0194984674453735
      ],
      "min": [
        -0.9910265207290649,
        -0.9319111704826355,
        -1.0086827278137207
      ],
      "type": "VEC3"
    },
    {
      "bufferView": 2,
      "byteOffset": 786384,
      "componentType": 5126,
      "count": 65532,
      "max": [
        0.9998332262039185,
        0.9999996423721313,
        0.9755024313926697
      ],
      "min": [
        -0.9998341798782349,
        -0.9999996423721313,
        -0.9754248261451721
      ],
      "type": "VEC3"
    },
    {
      "bufferView": 1,
      "componentType": 5126,
      "count": 65532,
      "max": [
        1.0,
        1.0
      ],
      "min": [
        0.0,
        0.0
      ],
      "type": "VEC2"
    },
    {
      "bufferView": 0,
      "componentType": 5125,
      "count": 333111,
      "type": "SCALAR"
    },
    {
      "bufferView": 2,
      "byteOffset": 1572768,
      "componentType": 5126,
      "count": 65532,
      "max": [
        0.9988405108451843,
        1.0194991827011108,
        1.019498348236084
      ],
      "min": [
        -0.9988401532173157,
        -0.9364094138145447,
        -1.0194997787475586
      ],
      "type": "VEC3"
    },
    {
      "bufferView": 2,
      "byteOffset": 2359152,
      "componentType": 5126,
      "count": 65532,
      "max": [
        0.9998350143432617,
        1.0,
        0.9755651354789734
      ],
      "min": [
        -0.9998341798782349,
        -0.9999996423721313,
        -0.9755145311355591
      ],
      "type": "VEC3"
    },
    {
      "bufferView": 1,
      "byteOffset": 524256,
      "componentType": 5126,
      "count": 65532,
      "max": [
        1.0,
        1.0
      ],
      "min": [
        0.0006000599823892117,
        0.0
      ],
      "type": "VEC2"
    },
    {
      "bufferView": 0,
      "byteOffset": 1332444,
      "componentType": 5125,
      "count": 333147,
      "type": "SCALAR"
    },
    {
      "bufferView": 2,
      "byteOffset": 3145536,
      "componentType": 5126,
      "count": 38938,
      "max": [
        0.9988407492637634,
        1.0194991827011108,
        1.0194987058639526
      ],
      "min": [
        -0.9988399744033813,
        -0.9364095330238342,
        -1.0194997787475586
      ],
      "type": "VEC3"
    },
    {
      "bufferView": 2,
      "byteOffset": 3612792,
      "componentType": 5126,
      "count": 38938,
      "max": [
        0.9998353719711304,
        0.9905778169631958,
        0.9755663871765137
      ],
      "min": [
        -0.999834418296814,
        -0.998478353023529,
        -0.9755145311355591
      ],
      "type": "VEC3"
    },
    {
      "bufferView": 1,
      "byteOffset": 1048512,
      "componentType": 5126,
      "count": 38938,
      "max": [
        1.0,
        0.6428571343421936
      ],
      "min": [
        0.0012001199647784233,
        0.0
      ],
      "type": "VEC2"
    },
    {
      "bufferView": 0,
      "byteOffset": 2665032,
      "componentType": 5125,
      "count": 173658,
      "type": "SCALAR"
    }
  ],
  "asset": {
    "extras": {
      "author": "bjorn.mutzel (https://sketchfab.com/bjorn.mutzel)",
      "license": "CC-BY-4.0 (http://creativecommons.org/licenses/by/4.0/)",
      "source": "https://sketchfab.com/3d-models/sphere-curve-37-50b2b2cb0b0f4e068729d46355f3c66f",
      "title": "Sphere curve 37"
    },
    "generator": "Sketchfab-11.57.0",
    "version": "2.0"
  },
  "bufferViews": [
    {
      "buffer": 0,
      "byteLength": 3359664,
      "name": "floatBufferViews",
      "target": 34963
    },
    {
      "buffer": 0,
      "byteLength": 1360016,
      "byteOffset": 3359664,
      "byteStride": 8,
      "name": "floatBufferViews",
      "target": 34962
    },
    {
      "buffer": 0,
      "byteLength": 4080048,
      "byteOffset": 4719680,
      "byteStride": 12,
      "name": "floatBufferViews",
      "target": 34962
    }
  ],
  "buffers": [
    {
      "byteLength": 8799728,
      "uri": "scene.bin"
    }
  ],
  "materials": [
    {
      "doubleSided": true,
      "name": "Material.001",
      "pbrMetallicRoughness": {
        "baseColorFactor": [
          0.979986380953846,
          0.9410090660518831,
          0.9410090660518831,
          1.0
        ],
        "metallicFactor": 0.02628348349114583,
        "roughnessFactor": 0.2005538516748694
      }
    }
  ],
  "meshes": [
    {
      "name": "sphere curve 37_Material.001_0",
      "primitives": [
        {
          "attributes": {
            "NORMAL": 1,
            "POSITION": 0,
            "TEXCOORD_0": 2
          },
          "indices": 3,
          "material": 0,
          "mode": 4
        }
      ]
    },
    {
      "name": "sphere curve 37_Material.001_0",
      "primitives": [
        {
          "attributes": {
            "NORMAL": 5,
            "POSITION": 4,
            "TEXCOORD_0": 6
          },
          "indices": 7,
          "material": 0,
          "mode": 4
        }
      ]
    },
    {
      "name": "sphere curve 37_Material.001_0",
      "primitives": [
        {
          "attributes": {
            "NORMAL": 9,
            "POSITION": 8,
            "TEXCOORD_0": 10
          },
          "indices": 11,
          "material": 0,
          "mode": 4
        }
      ]
    }
  ],
  "nodes": [
    {
      "children": [
        1
      ],
      "matrix": [
        1.0,
        0.0,
        0.0,
        0.0,
        0.0,
        2.220446049250313e-16,
        -1.0,
        0.0,
        0.0,
        1.0,
        2.220446049250313e-16,
        0.0,
        0.0,
        0.0,
        0.0,
        1.0
      ],
      "name": "Sketchfab_model"
    },
    {
      "children": [
        2
      ],
      "matrix": [
        0.009999999776482582,
        0.0,
        0.0,
        0.0,
        0.0,
        0.0,
        0.009999999776482582,
        0.0,
        0.0,
        -0.009999999776482582,
        0.0,
        0.0,
        0.0,
        0.0,
        0.0,
        1.0
      ],
      "name": "4cbf37d3ae2c4e539648e38bd32aee4a.fbx"
    },
    {
      "children": [
        3,
        6,
        8
      ],
      "name": "RootNode"
    },
    {
      "children": [
        4
      ],
      "matrix": [
        -29.086466012969506,
        -5.518904334943286,
        -95.51712263095594,
        0.0,
        56.63931168888501,
        79.46723477095061,
        -21.83911557888623,
        0.0,
        77.110090100962,
        -60.45246312143063,
        -19.988339280030054,
        0.0,
        407.6245422363281,
        590.38623046875,
        -100.54539489746094,
        1.0
      ],
      "name": "Light"
    },
    {
      "children": [
        5
      ],
      "matrix": [
        1.0,
        0.0,
        0.0,
        0.0,
        0.0,
        2.220446049250313e-16,
        1.0,
        0.0,
        0.0,
        -1.0,
        2.220446049250313e-16,
        0.0,
        0.0,
        0.0,
        0.0,
        1.0
      ],
      "name": "Object_4"
    },
    {
      "name": "Object_5"
    },
    {
      "children": [
        7
      ],
      "matrix": [
        -65.1558127516791,
        -44.52713915455176,
        -61.417049289096546,
        0.0,
        -32.401349332924404,
        89.53957282709818,
        -30.5420854760369,
        0.0,
        68.59207001076241,
        8.666908837178815e-06,
        -72.76761921184274,
        0.0,
        735.88916015625,
        495.8309326171875,
        692.5791015625,
        1.0
      ],
      "name": "Camera"
    },
    {
      "name": "Object_7"
    },
    {
      "children": [
        9,
        10,
        11
      ],
      "matrix": [
        -28.573447020118657,
        -55.77329015494056,
        77.92880231776496,
        0.0,
        85.50911975519688,
        -51.55074312721333,
        -5.541779653096607,
        0.0,
        43.26370955061387,
        65.05275542453899,
        62.421073745933256,
        0.0,
        0.0,
        0.0,
        0.0,
        1.0
      ],
      "name": "sphere curve 37"
    },
    {
      "mesh": 0,
      "name": "sphere curve 37_Material.001_0"
    },
    {
      "mesh": 1,
      "name": "sphere curve 37_Material.001_0"
    },
    {
      "mesh": 2,
      "name": "sphere curve 37_Material.001_0"
    }
  ],
  "scene": 0,
  "scenes": [
    {
      "name": "Sketchfab_Scene",
      "nodes": [
        0
      ]
    }
  ]
}
