{
  "accessors": [
    {
      "bufferView": 1,
      "componentType": 5126,
      "count": 65532,
      "max": [
        0.5652549266815186,
        0.774560809135437,
        0.9294286966323853
      ],
      "min": [
        -0.6378737092018127,
        0.30789899826049805,
        0.3545176386833191
      ],
      "type": "VEC3"
    },
    {
      "bufferView": 1,
      "byteOffset": 786384,
      "componentType": 5126,
      "count": 65532,
      "max": [
        0.9998548030853271,
        0.9999713897705078,
        0.9998371601104736
      ],
      "min": [
        -0.9995932579040527,
        -0.9998700618743896,
        -0.9994746446609497
      ],
      "type": "VEC3"
    },
    {
      "bufferView": 0,
      "componentType": 5125,
      "count": 364335,
      "type": "SCALAR"
    },
    {
      "bufferView": 1,
      "byteOffset": 1572768,
      "componentType": 5126,
      "count": 65532,
      "max": [
        0.6814388632774353,
        0.7497655749320984,
        0.9526488780975342
      ],
      "min": [
        -0.6542991399765015,
        0.21377290785312653,
        0.30481794476509094
      ],
      "type": "VEC3"
    },
    {
      "bufferView": 1,
      "byteOffset": 2359152,
      "componentType": 5126,
      "count": 65532,
      "max": [
        0.9998548030853271,
        0.9999184608459473,
        0.9997637271881104
      ],
      "min": [
        -0.9995672702789307,
        -0.9996784925460815,
        -0.999770998954773
      ],
      "type": "VEC3"
    },
    {
      "bufferView": 0,
      "byteOffset": 1457340,
      "componentType": 5125,
      "count": 358200,
      "type": "SCALAR"
    },
    {
      "bufferView": 1,
      "byteOffset": 3145536,
      "componentType": 5126,
      "count": 65532,
      "max": [
        0.7016464471817017,
        0.7368062138557434,
        0.9769530296325684
      ],
      "min": [
        -0.7031438946723938,
        -0.039581749588251114,
        0.2641335129737854
      ],
      "type": "VEC3"
    },
    {
      "bufferView": 1,
      "byteOffset": 3931920,
      "componentType": 5126,
      "count": 65532,
      "max": [
        0.9999192953109741,
        0.9997410774230957,
        0.9998950958251953
      ],
      "min": [
        -0.999967098236084,
        -0.9999858140945435,
        -0.9998486042022705
      ],
      "type": "VEC3"
    },
    {
      "bufferView": 0,
      "byteOffset": 2890140,
      "componentType": 5125,
      "count": 360918,
      "type": "SCALAR"
    },
    {
      "bufferView": 1,
      "byteOffset": 4718304,
      "componentType": 5126,
      "count": 65532,
      "max": [
        0.849929690361023,
        0.7232041954994202,
        0.9769530296325684
      ],
      "min": [
        -0.7607306838035583,
        -0.2559189796447754,
        0.1837707906961441
      ],
      "type": "VEC3"
    },
    {
      "bufferView": 1,
      "byteOffset": 5504688,
      "componentType": 5126,
      "count": 65532,
      "max": [
        0.9999759197235107,
        0.9998782873153687,
        0.9999918937683105
      ],
      "min": [
        -0.9999947547912598,
        -0.9998754262924194,
        -0.9999390840530396
      ],
      "type": "VEC3"
    },
    {
      "bufferView": 0,
      "byteOffset": 4333812,
      "componentType": 5125,
      "count": 364035,
      "type": "SCALAR"
    },
    {
      "bufferView": 1,
      "byteOffset": 6291072,
      "componentType": 5126,
      "count": 65532,
      "max": [
        0.8842782378196716,
        0.7092791199684143,
        0.9768151044845581
      ],
      "min": [
        -0.8773779273033142,
        -0.47716841101646423,
        0.09369750320911407
      ],
      "type": "VEC3"
    },
    {
      "bufferView": 1,
      "byteOffset": 7077456,
      "componentType": 5126,
      "count": 65532,
      "max": [
        0.9999231100082397,
        0.999909520149231,
        0.9998736381530762
      ],
      "min": [
        -0.9999371767044067,
        -0.9999079704284668,
        -0.9999334812164307
      ],
      "type": "VEC3"
    },
    {
      "bufferView": 0,
      "byteOffset": 5789952,
      "componentType": 5125,
      "count": 361239,
      "type": "SCALAR"
    },
    {
      "bufferView": 1,
      "byteOffset": 7863840,
      "componentType": 5126,
      "count": 65532,
      "max": [
        0.9035712480545044,
        0.6953541040420532,
        0.9540419578552246
      ],
      "min": [
        -0.9231515526771545,
        -0.8100128173828125,
        0.07089885324239731
      ],
      "type": "VEC3"
    },
    {
      "bufferView": 1,
      "byteOffset": 8650224,
      "componentType": 5126,
      "count": 65532,
      "max": [
        0.9999333620071411,
        0.9998900890350342,
        0.9998725652694702
      ],
      "min": [
        -0.9998370409011841,
        -0.9999140501022339,
        -0.9996018409729004
      ],
      "type": "VEC3"
    },
    {
      "bufferView": 0,
      "byteOffset": 7234908,
      "componentType": 5125,
      "count": 360078,
      "type": "SCALAR"
    },
    {
      "bufferView": 1,
      "byteOffset": 9436608,
      "componentType": 5126,
      "count": 65532,
      "max": [
        0.9693512320518494,
        0.6814290285110474,
        0.8070273399353027
      ],
      "min": [
        -0.950266420841217,
        -0.8844757080078125,
        -0.11215753853321075
      ],
      "type": "VEC3"
    },
    {
      "bufferView": 1,
      "byteOffset": 10222992,
      "componentType": 5126,
      "count": 65532,
      "max": [
        0.999988317489624,
        0.9999531507492065,
        0.9998891353607178
      ],
      "min": [
        -0.9999569654464722,
        -0.9996504783630371,
        -0.9998642206192017
      ],
      "type": "VEC3"
    },
    {
      "bufferView": 0,
      "byteOffset": 8675220,
      "componentType": 5125,
      "count": 359931,
      "type": "SCALAR"
    },
    {
      "bufferView": 1,
      "byteOffset": 11009376,
      "componentType": 5126,
      "count": 65532,
      "max": [
        0.9752112030982971,
        0.6429271697998047,
        0.5605180263519287
      ],
      "min": [
        -0.9753366708755493,
        -0.9047446250915527,
        -0.42700695991516113
      ],
      "type": "VEC3"
    },
    {
      "bufferView": 1,
      "byteOffset": 11795760,
      "componentType": 5126,
      "count": 65532,
      "max": [
        0.999988317489624,
        0.9997589588165283,
        0.9999363422393799
      ],
      "min": [
        -0.999970555305481,
        -0.9999140501022339,
        -0.999957799911499
      ],
      "type": "VEC3"
    },
    {
      "bufferView": 0,
      "byteOffset": 10114944,
      "componentType": 5125,
      "count": 357183,
      "type": "SCALAR"
    },
    {
      "bufferView": 1,
      "byteOffset": 12582144,
      "componentType": 5126,
      "count": 65532,
      "max": [
        0.9752112030982971,
        0.6213656067848206,
        0.4018295109272003
      ],
      "min": [
        -0.9753500819206238,
        -0.9079154133796692,
        -0.5392795205116272
      ],
      "type": "VEC3"
    },
    {
      "bufferView": 1,
      "byteOffset": 13368528,
      "componentType": 5126,
      "count": 65532,
      "max": [
        0.9999659061431885,
        0.9999648332595825,
        0.999944806098938
      ],
      "min": [
        -0.999990701675415,
        -0.9999685287475586,
        -0.9999921321868896
      ],
      "type": "VEC3"
    },
    {
      "bufferView": 0,
      "byteOffset": 11543676,
      "componentType": 5125,
      "count": 358026,
      "type": "SCALAR"
    },
    {
      "bufferView": 1,
      "byteOffset": 14154912,
      "componentType": 5126,
      "count": 65532,
      "max": [
        0.9704744815826416,
        0.605075478553772,
        0.28152337670326233
      ],
      "min": [
        -0.9699927568435669,
        -0.9014323353767395,
        -0.8254242539405823
      ],
      "type": "VEC3"
    },
    {
      "bufferView": 1,
      "byteOffset": 14941296,
      "componentType": 5126,
      "count": 65532,
      "max": [
        0.9999443292617798,
        0.9999648332595825,
        0.9999831914901733
      ],
      "min": [
        -0.9997173547744751,
        -0.9999105930328369,
        -0.9999111890792847
      ],
      "type": "VEC3"
    },
    {
      "bufferView": 0,
      "byteOffset": 12975780,
      "componentType": 5125,
      "count": 359223,
      "type": "SCALAR"
    },
    {
      "bufferView": 1,
      "byteOffset": 15727680,
      "componentType": 5126,
      "count": 65532,
      "max": [
        0.9392674565315247,
        0.650251567363739,
        0.21324673295021057
      ],
      "min": [
        -0.9440979361534119,
        -0.7049277424812317,
        -0.9588170051574707
      ],
      "type": "VEC3"
    },
    {
      "bufferView": 1,
      "byteOffset": 16514064,
      "componentType": 5126,
      "count": 65532,
      "max": [
        0.9999443292617798,
        0.9999417066574097,
        0.9998812675476074
      ],
      "min": [
        -0.9999610185623169,
        -0.9999642372131348,
        -0.9999699592590332
      ],
      "type": "VEC3"
    },
    {
      "bufferView": 0,
      "byteOffset": 14412672,
      "componentType": 5125,
      "count": 356847,
      "type": "SCALAR"
    },
    {
      "bufferView": 1,
      "byteOffset": 17300448,
      "componentType": 5126,
      "count": 65532,
      "max": [
        0.8702170252799988,
        0.6828962564468384,
        -0.05268323794007301
      ],
      "min": [
        -0.9053677320480347,
        -0.6059949398040771,
        -0.9765997529029846
      ],
      "type": "VEC3"
    },
    {
      "bufferView": 1,
      "byteOffset": 18086832,
      "componentType": 5126,
      "count": 65532,
      "max": [
        0.999975323677063,
        0.9999208450317383,
        0.9997239112854004
      ],
      "min": [
        -0.9999994039535522,
        -0.9999105930328369,
        -0.9998512268066406
      ],
      "type": "VEC3"
    },
    {
      "bufferView": 0,
      "byteOffset": 15840060,
      "componentType": 5125,
      "count": 355080,
      "type": "SCALAR"
    },
    {
      "bufferView": 1,
      "byteOffset": 18873216,
      "componentType": 5126,
      "count": 65532,
      "max": [
        0.7915612459182739,
        0.7132543325424194,
        -0.16380836069583893
      ],
      "min": [
        -0.8345711827278137,
        -0.3393990099430084,
        -0.9770178198814392
      ],
      "type": "VEC3"
    },
    {
      "bufferView": 1,
      "byteOffset": 19659600,
      "componentType": 5126,
      "count": 65532,
      "max": [
        0.9999456405639648,
        0.9995394945144653,
        0.9999685287475586
      ],
      "min": [
        -0.999970555305481,
        -0.9999560117721558,
        -0.999963641166687
      ],
      "type": "VEC3"
    },
    {
      "bufferView": 0,
      "byteOffset": 17260380,
      "componentType": 5125,
      "count": 357267,
      "type": "SCALAR"
    },
    {
      "bufferView": 1,
      "byteOffset": 20445984,
      "componentType": 5126,
      "count": 65532,
      "max": [
        0.6850605607032776,
        0.7514268755912781,
        -0.23070526123046875
      ],
      "min": [
        -0.7348319888114929,
        -0.21084611117839813,
        -0.9749141931533813
      ],
      "type": "VEC3"
    },
    {
      "bufferView": 1,
      "byteOffset": 21232368,
      "componentType": 5126,
      "count": 65532,
      "max": [
        0.9998432397842407,
        0.9999494552612305,
        0.9997776746749878
      ],
      "min": [
        -0.9999703168869019,
        -0.999956488609314,
        -0.9999905824661255
      ],
      "type": "VEC3"
    },
    {
      "bufferView": 0,
      "byteOffset": 18689448,
      "componentType": 5125,
      "count": 357615,
      "type": "SCALAR"
    },
    {
      "bufferView": 1,
      "byteOffset": 22018752,
      "componentType": 5126,
      "count": 65532,
      "max": [
        0.648341715335846,
        0.7556113600730896,
        -0.28400447964668274
      ],
      "min": [
        -0.6524050235748291,
        0.0946541577577591,
        -0.9738221764564514
      ],
      "type": "VEC3"
    },
    {
      "bufferView": 1,
      "byteOffset": 22805136,
      "componentType": 5126,
      "count": 65532,
      "max": [
        0.9999724626541138,
        0.9993568658828735,
        0.9997671842575073
      ],
      "min": [
        -0.9999703168869019,
        -0.9999940395355225,
        -0.9998089075088501
      ],
      "type": "VEC3"
    },
    {
      "bufferView": 0,
      "byteOffset": 20119908,
      "componentType": 5125,
      "count": 359979,
      "type": "SCALAR"
    },
    {
      "bufferView": 1,
      "byteOffset": 23591520,
      "componentType": 5126,
      "count": 65533,
      "max": [
        0.5803166031837463,
        0.774560809135437,
        -0.30304279923439026
      ],
      "min": [
        -0.613057017326355,
        0.13191412389278412,
        -0.9162435531616211
      ],
      "type": "VEC3"
    },
    {
      "bufferView": 1,
      "byteOffset": 24377916,
      "componentType": 5126,
      "count": 65533,
      "max": [
        0.999840497970581,
        0.9994723796844482,
        0.9998776912689209
      ],
      "min": [
        -0.9997717142105103,
        -0.999956488609314,
        -0.9997208118438721
      ],
      "type": "VEC3"
    },
    {
      "bufferView": 0,
      "byteOffset": 21559824,
      "componentType": 5125,
      "count": 362256,
      "type": "SCALAR"
    },
    {
      "bufferView": 1,
      "byteOffset": 25164312,
      "componentType": 5126,
      "count": 65532,
      "max": [
        0.7499746084213257,
        0.7745607495307922,
        0.7961750626564026
      ],
      "min": [
        -0.81655353307724,
        0.3797643184661865,
        -0.8792828321456909
      ],
      "type": "VEC3"
    },
    {
      "bufferView": 1,
      "byteOffset": 25950696,
      "componentType": 5126,
      "count": 65532,
      "max": [
        0.9992618560791016,
        0.9994621276855469,
        0.9999889135360718
      ],
      "min": [
        -0.9994746446609497,
        -0.9998996257781982,
        -0.9999079704284668
      ],
      "type": "VEC3"
    },
    {
      "bufferView": 0,
      "byteOffset": 23008848,
      "componentType": 5125,
      "count": 360423,
      "type": "SCALAR"
    },
    {
      "bufferView": 1,
      "byteOffset": 26737080,
      "componentType": 5126,
      "count": 65533,
      "max": [
        0.9747305512428284,
        0.7622430324554443,
        0.9760672450065613
      ],
      "min": [
        -0.9740540385246277,
        -0.9070797562599182,
        -0.9753593802452087
      ],
      "type": "VEC3"
    },
    {
      "bufferView": 1,
      "byteOffset": 27523476,
      "componentType": 5126,
      "count": 65533,
      "max": [
        0.9998961687088013,
        0.9995009899139404,
        0.9998444318771362
      ],
      "min": [
        -0.9994024038314819,
        -0.9999940395355225,
        -0.999811053276062
      ],
      "type": "VEC3"
    },
    {
      "bufferView": 0,
      "byteOffset": 24450540,
      "componentType": 5125,
      "count": 264645,
      "type": "SCALAR"
    },
    {
      "bufferView": 1,
      "byteOffset": 28309872,
      "componentType": 5126,
      "count": 4529,
      "max": [
        0.829051673412323,
        0.5985252261161804,
        0.8319173455238342
      ],
      "min": [
        -0.8306158185005188,
        -0.7619451284408569,
        -0.8288223743438721
      ],
      "type": "VEC3"
    },
    {
      "bufferView": 1,
      "byteOffset": 28364220,
      "componentType": 5126,
      "count": 4529,
      "max": [
        0.9997457265853882,
        0.9998378753662109,
        0.9992762804031372
      ],
      "min": [
        -0.9997549057006836,
        -0.9946731328964233,
        -0.9970120191574097
      ],
      "type": "VEC3"
    },
    {
      "bufferView": 0,
      "byteOffset": 25509120,
      "componentType": 5125,
      "count": 12480,
      "type": "SCALAR"
    }
  ],
  "asset": {
    "extras": {
      "author": "sc8di (https://sketchfab.com/sc8di)",
      "license": "CC-BY-4.0 (http://creativecommons.org/licenses/by/4.0/)",
      "source": "https://sketchfab.com/3d-models/stereographic-voronoi-sphere-a55e9b64cab045c4b06069c9127ece5b",
      "title": "Stereographic Voronoi Sphere"
    },
    "generator": "Sketchfab-10.65.0",
    "version": "2.0"
  },
  "bufferViews": [
    {
      "buffer": 0,
      "byteLength": 25559040,
      "name": "floatBufferViews",
      "target": 34963
    },
    {
      "buffer": 0,
      "byteLength": 28418568,
      "byteOffset": 25559040,
      "byteStride": 12,
      "name": "floatBufferViews",
      "target": 34962
    }
  ],
  "buffers": [
    {
      "byteLength": 53977608,
      "uri": "scene.bin"
    }
  ],
  "materials": [
    {
      "doubleSided": true,
      "name": "Scene_-_Root",
      "pbrMetallicRoughness": {
        "roughnessFactor": 0.23275662890879134
      }
    }
  ],
  "meshes": [
    {
      "name": "XYZ Function__0",
      "primitives": [
        {
          "attributes": {
            "NORMAL": 1,
            "POSITION": 0
          },
          "indices": 2,
          "material": 0,
          "mode": 4
        }
      ]
    },
    {
      "name": "XYZ Function__0",
      "primitives": [
        {
          "attributes": {
            "NORMAL": 4,
            "POSITION": 3
          },
          "indices": 5,
          "material": 0,
          "mode": 4
        }
      ]
    },
    {
      "name": "XYZ Function__0",
      "primitives": [
        {
          "attributes": {
            "NORMAL": 7,
            "POSITION": 6
          },
          "indices": 8,
          "material": 0,
          "mode": 4
        }
      ]
    },
    {
      "name": "XYZ Function__0",
      "primitives": [
        {
          "attributes": {
            "NORMAL": 10,
            "POSITION": 9
          },
          "indices": 11,
          "material": 0,
          "mode": 4
        }
      ]
    },
    {
      "name": "XYZ Function__0",
      "primitives": [
        {
          "attributes": {
            "NORMAL": 13,
            "POSITION": 12
          },
          "indices": 14,
          "material": 0,
          "mode": 4
        }
      ]
    },
    {
      "name": "XYZ Function__0",
      "primitives": [
        {
          "attributes": {
            "NORMAL": 16,
            "POSITION": 15
          },
          "indices": 17,
          "material": 0,
          "mode": 4
        }
      ]
    },
    {
      "name": "XYZ Function__0",
      "primitives": [
        {
          "attributes": {
            "NORMAL": 19,
            "POSITION": 18
          },
          "indices": 20,
          "material": 0,
          "mode": 4
        }
      ]
    },
    {
      "name": "XYZ Function__0",
      "primitives": [
        {
          "attributes": {
            "NORMAL": 22,
            "POSITION": 21
          },
          "indices": 23,
          "material": 0,
          "mode": 4
        }
      ]
    },
    {
      "name": "XYZ Function__0",
      "primitives": [
        {
          "attributes": {
            "NORMAL": 25,
            "POSITION": 24
          },
          "indices": 26,
          "material": 0,
          "mode": 4
        }
      ]
    },
    {
      "name": "XYZ Function__0",
      "primitives": [
        {
          "attributes": {
            "NORMAL": 28,
            "POSITION": 27
          },
          "indices": 29,
          "material": 0,
          "mode": 4
        }
      ]
    },
    {
      "name": "XYZ Function__0",
      "primitives": [
        {
          "attributes": {
            "NORMAL": 31,
            "POSITION": 30
          },
          "indices": 32,
          "material": 0,
          "mode": 4
        }
      ]
    },
    {
      "name": "XYZ Function__0",
      "primitives": [
        {
          "attributes": {
            "NORMAL": 34,
            "POSITION": 33
          },
          "indices": 35,
          "material": 0,
          "mode": 4
        }
      ]
    },
    {
      "name": "XYZ Function__0",
      "primitives": [
        {
          "attributes": {
            "NORMAL": 37,
            "POSITION": 36
          },
          "indices": 38,
          "material": 0,
          "mode": 4
        }
      ]
    },
    {
      "name": "XYZ Function__0",
      "primitives": [
        {
          "attributes": {
            "NORMAL": 40,
            "POSITION": 39
          },
          "indices": 41,
          "material": 0,
          "mode": 4
        }
      ]
    },
    {
      "name": "XYZ Function__0",
      "primitives": [
        {
          "attributes": {
            "NORMAL": 43,
            "POSITION": 42
          },
          "indices": 44,
          "material": 0,
          "mode": 4
        }
      ]
    },
    {
      "name": "XYZ Function__0",
      "primitives": [
        {
          "attributes": {
            "NORMAL": 46,
            "POSITION": 45
          },
          "indices": 47,
          "material": 0,
          "mode": 4
        }
      ]
    },
    {
      "name": "XYZ Function__0",
      "primitives": [
        {
          "attributes": {
            "NORMAL": 49,
            "POSITION": 48
          },
          "indices": 50,
          "material": 0,
          "mode": 4
        }
      ]
    },
    {
      "name": "XYZ Function__0",
      "primitives": [
        {
          "attributes": {
            "NORMAL": 52,
            "POSITION": 51
          },
          "indices": 53,
          "material": 0,
          "mode": 4
        }
      ]
    },
    {
      "name": "XYZ Function__0",
      "primitives": [
        {
          "attributes": {
            "NORMAL": 55,
            "POSITION": 54
          },
          "indices": 56,
          "material": 0,
          "mode": 4
        }
      ]
    }
  ],
  "nodes": [
    {
      "children": [
        1
      ],
      "matrix": [
        1.0,
        0.0,
        0.0,
        0.0,
        0.0,
        2.220446049250313e-16,
        -1.0,
        0.0,
        0.0,
        1.0,
        2.220446049250313e-16,
        0.0,
        0.0,
        0.0,
        0.0,
        1.0
      ],
      "name": "Sketchfab_model"
    },
    {
      "children": [
        2
      ],
      "matrix": [
        1.0,
        0.0,
        0.0,
        0.0,
        0.0,
        0.0,
        1.0,
        0.0,
        0.0,
        -1.0,
        0.0,
        0.0,
        0.0,
        0.0,
        0.0,
        1.0
      ],
      "name": "3860cfe757a049abbe260dae3c8286b7.fbx"
    },
    {
      "children": [
        3
      ],
      "name": "RootNode"
    },
    {
      "children": [
        4,
        5,
        6,
        7,
        8,
        9,
        10,
        11,
        12,
        13,
        14,
        15,
        16,
        17,
        18,
        19,
        20,
        21,
        22
      ],
      "matrix": [
        100.0,
        0.0,
        0.0,
        0.0,
        0.0,
        99.9999999999999,
        4.371138828673792e-06,
        0.0,
        0.0,
        -4.371138828673792e-06,
        99.9999999999999,
        0.0,
        0.0,
        0.0,
        0.0,
        1.0
      ],
      "name": "XYZ Function"
    },
    {
      "mesh": 0,
      "name": "XYZ Function__0"
    },
    {
      "mesh": 1,
      "name": "XYZ Function__0"
    },
    {
      "mesh": 2,
      "name": "XYZ Function__0"
    },
    {
      "mesh": 3,
      "name": "XYZ Function__0"
    },
    {
      "mesh": 4,
      "name": "XYZ Function__0"
    },
    {
      "mesh": 5,
      "name": "XYZ Function__0"
    },
    {
      "mesh": 6,
      "name": "XYZ Function__0"
    },
    {
      "mesh": 7,
      "name": "XYZ Function__0"
    },
    {
      "mesh": 8,
      "name": "XYZ Function__0"
    },
    {
      "mesh": 9,
      "name": "XYZ Function__0"
    },
    {
      "mesh": 10,
      "name": "XYZ Function__0"
    },
    {
      "mesh": 11,
      "name": "XYZ Function__0"
    },
    {
      "mesh": 12,
      "name": "XYZ Function__0"
    },
    {
      "mesh": 13,
      "name": "XYZ Function__0"
    },
    {
      "mesh": 14,
      "name": "XYZ Function__0"
    },
    {
      "mesh": 15,
      "name": "XYZ Function__0"
    },
    {
      "mesh": 16,
      "name": "XYZ Function__0"
    },
    {
      "mesh": 17,
      "name": "XYZ Function__0"
    },
    {
      "mesh": 18,
      "name": "XYZ Function__0"
    }
  ],
  "scene": 0,
  "scenes": [
    {
      "name": "Sketchfab_Scene",
      "nodes": [
        0
      ]
    }
  ]
}
